# xmcd CD database file
#
# Track frame offsets:
#	150
#	35642
#	62806
#	90682
#
# Disc length: 1891 seconds
#
# Revision: 0
# Processed by: cddbd v1.5.2PL0 Copyright (c) Steve Scherf et al.
# Submitted via: CDex 1.70beta1
#
DISCID=30076104
DTITLE=Fight The Big Bull - Dying will be easy
DYEAR=2008
DGENRE=Jazz
TTITLE0=Dying will be easy
TTITLE1=November 25th
TTITLE2=Grizzly Bear
TTITLE3=In Jarama Valley
EXTD=YEAR: 2008
EXTT0=
EXTT1=
EXTT2=
EXTT3=
PLAYORDER=
